<svg class="border shadow-md" viewBox="0 0 1062.2577777777778 597.52" xmlns="http://www.w3.org/2000/svg" preserveAspectRatio="none" style="width: 1062.26px; height: 597.52px;"><rect class="bg" id="bg" x="0" y="0" width="1062.2577777777778" height="597.52" fill="#ffffff"></rect><g><path d="M 0 -39.834666666666664V -31.86773333333333 H 53.11288888888889 V -31.86773333333333 H 106.22577777777778 V -55.76853333333333 H 159.33866666666665 V -47.80159999999999 H 212.45155555555556 V -31.86773333333333 H 265.56444444444446 V -15.933866666666667 H 318.6773333333333 V -31.86773333333333 H 371.7902222222222 V -39.834666666666664 H 424.9031111111111 V -15.933866666666667 H 478.016 V -63.73546666666666 H 531.1288888888889 V -31.86773333333333 H 584.2417777777778 V -15.933866666666667 H 637.3546666666666 V -63.73546666666666 H 690.4675555555556 V -39.834666666666664 H 743.5804444444444 V -39.834666666666664 H 796.6933333333334 V -55.76853333333333 H 849.8062222222222 V -23.900799999999997 H 902.9191111111111 V -39.834666666666664 H 956.032 V -15.933866666666667 H 1009.1448888888889 V -63.73546666666666 H 1062.2577777777778 V 598.52 H 0 V -39.834666666666664 Z" fill="#8FFF93"></path></g><g><path d="M 0 0V 7.9669333333333325 H 53.11288888888889 V 0 H 106.22577777777778 V 0 H 159.33866666666665 V 15.933866666666665 H 212.45155555555556 V 15.933866666666665 H 265.56444444444446 V 23.900799999999997 H 318.6773333333333 V 23.900799999999997 H 371.7902222222222 V 0 H 424.9031111111111 V 23.900799999999997 H 478.016 V 7.9669333333333325 H 531.1288888888889 V 23.900799999999997 H 584.2417777777778 V 0 H 637.3546666666666 V -7.9669333333333325 H 690.4675555555556 V 15.933866666666665 H 743.5804444444444 V 23.900799999999997 H 796.6933333333334 V 23.900799999999997 H 849.8062222222222 V 0 H 902.9191111111111 V 15.933866666666665 H 956.032 V -23.900799999999997 H 1009.1448888888889 V 23.900799999999997 H 1062.2577777777778 V 598.52 H 0 V 0 Z" fill="#87f190"></path></g><g><path d="M 0 39.834666666666664V 31.86773333333333 H 53.11288888888889 V 47.80159999999999 H 106.22577777777778 V 63.73546666666666 H 159.33866666666665 V 47.80159999999999 H 212.45155555555556 V 63.73546666666666 H 265.56444444444446 V 39.834666666666664 H 318.6773333333333 V 39.834666666666664 H 371.7902222222222 V 55.76853333333333 H 424.9031111111111 V 47.80159999999999 H 478.016 V 47.80159999999999 H 531.1288888888889 V 39.834666666666664 H 584.2417777777778 V 39.834666666666664 H 637.3546666666666 V 63.73546666666666 H 690.4675555555556 V 55.76853333333333 H 743.5804444444444 V 55.76853333333333 H 796.6933333333334 V 23.900799999999997 H 849.8062222222222 V 63.73546666666666 H 902.9191111111111 V 23.900799999999997 H 956.032 V 63.73546666666666 H 1009.1448888888889 V 47.80159999999999 H 1062.2577777777778 V 598.52 H 0 V 39.834666666666664 Z" fill="#7fe38d"></path></g><g><path d="M 0 79.66933333333333V 95.60319999999999 H 53.11288888888889 V 95.60319999999999 H 106.22577777777778 V 79.66933333333333 H 159.33866666666665 V 79.66933333333333 H 212.45155555555556 V 79.66933333333333 H 265.56444444444446 V 95.60319999999999 H 318.6773333333333 V 55.76853333333333 H 371.7902222222222 V 55.76853333333333 H 424.9031111111111 V 63.73546666666666 H 478.016 V 79.66933333333333 H 531.1288888888889 V 95.60319999999999 H 584.2417777777778 V 87.63626666666666 H 637.3546666666666 V 103.57013333333333 H 690.4675555555556 V 87.63626666666666 H 743.5804444444444 V 79.66933333333333 H 796.6933333333334 V 63.73546666666666 H 849.8062222222222 V 63.73546666666666 H 902.9191111111111 V 87.63626666666666 H 956.032 V 63.73546666666666 H 1009.1448888888889 V 55.76853333333333 H 1062.2577777777778 V 598.52 H 0 V 79.66933333333333 Z" fill="#77d58a"></path></g><g><path d="M 0 119.50399999999999V 135.43786666666665 H 53.11288888888889 V 95.60319999999999 H 106.22577777777778 V 95.60319999999999 H 159.33866666666665 V 119.50399999999999 H 212.45155555555556 V 135.43786666666665 H 265.56444444444446 V 143.4048 H 318.6773333333333 V 143.4048 H 371.7902222222222 V 135.43786666666665 H 424.9031111111111 V 135.43786666666665 H 478.016 V 119.50399999999999 H 531.1288888888889 V 135.43786666666665 H 584.2417777777778 V 127.47093333333332 H 637.3546666666666 V 95.60319999999999 H 690.4675555555556 V 119.50399999999999 H 743.5804444444444 V 135.43786666666665 H 796.6933333333334 V 111.53706666666666 H 849.8062222222222 V 119.50399999999999 H 902.9191111111111 V 127.47093333333332 H 956.032 V 119.50399999999999 H 1009.1448888888889 V 127.47093333333332 H 1062.2577777777778 V 598.52 H 0 V 119.50399999999999 Z" fill="#6fc787"></path></g><g><path d="M 0 159.33866666666665V 143.4048 H 53.11288888888889 V 135.43786666666665 H 106.22577777777778 V 159.33866666666665 H 159.33866666666665 V 175.2725333333333 H 212.45155555555556 V 151.3717333333333 H 265.56444444444446 V 167.3056 H 318.6773333333333 V 159.33866666666665 H 371.7902222222222 V 151.3717333333333 H 424.9031111111111 V 151.3717333333333 H 478.016 V 167.3056 H 531.1288888888889 V 167.3056 H 584.2417777777778 V 159.33866666666665 H 637.3546666666666 V 183.23946666666666 H 690.4675555555556 V 183.23946666666666 H 743.5804444444444 V 135.43786666666665 H 796.6933333333334 V 167.3056 H 849.8062222222222 V 183.23946666666666 H 902.9191111111111 V 159.33866666666665 H 956.032 V 167.3056 H 1009.1448888888889 V 159.33866666666665 H 1062.2577777777778 V 598.52 H 0 V 159.33866666666665 Z" fill="#67b984"></path></g><g><path d="M 0 199.17333333333332V 183.23946666666666 H 53.11288888888889 V 207.14026666666666 H 106.22577777777778 V 207.14026666666666 H 159.33866666666665 V 215.10719999999998 H 212.45155555555556 V 199.17333333333332 H 265.56444444444446 V 183.23946666666666 H 318.6773333333333 V 207.14026666666666 H 371.7902222222222 V 223.07413333333332 H 424.9031111111111 V 175.2725333333333 H 478.016 V 175.2725333333333 H 531.1288888888889 V 207.14026666666666 H 584.2417777777778 V 223.07413333333332 H 637.3546666666666 V 207.14026666666666 H 690.4675555555556 V 215.10719999999998 H 743.5804444444444 V 223.07413333333332 H 796.6933333333334 V 215.10719999999998 H 849.8062222222222 V 191.20639999999997 H 902.9191111111111 V 199.17333333333332 H 956.032 V 191.20639999999997 H 1009.1448888888889 V 223.07413333333332 H 1062.2577777777778 V 598.52 H 0 V 199.17333333333332 Z" fill="#5fab81"></path></g><g><path d="M 0 239.00799999999998V 223.07413333333332 H 53.11288888888889 V 215.10719999999998 H 106.22577777777778 V 262.9088 H 159.33866666666665 V 262.9088 H 212.45155555555556 V 231.04106666666664 H 265.56444444444446 V 262.9088 H 318.6773333333333 V 215.10719999999998 H 371.7902222222222 V 262.9088 H 424.9031111111111 V 239.00799999999998 H 478.016 V 262.9088 H 531.1288888888889 V 223.07413333333332 H 584.2417777777778 V 246.97493333333333 H 637.3546666666666 V 254.94186666666664 H 690.4675555555556 V 254.94186666666664 H 743.5804444444444 V 223.07413333333332 H 796.6933333333334 V 239.00799999999998 H 849.8062222222222 V 239.00799999999998 H 902.9191111111111 V 239.00799999999998 H 956.032 V 246.97493333333333 H 1009.1448888888889 V 246.97493333333333 H 1062.2577777777778 V 598.52 H 0 V 239.00799999999998 Z" fill="#579d7e"></path></g><g><path d="M 0 278.8426666666667V 294.77653333333336 H 53.11288888888889 V 302.7434666666667 H 106.22577777777778 V 294.77653333333336 H 159.33866666666665 V 278.8426666666667 H 212.45155555555556 V 254.94186666666667 H 265.56444444444446 V 294.77653333333336 H 318.6773333333333 V 302.7434666666667 H 371.7902222222222 V 294.77653333333336 H 424.9031111111111 V 302.7434666666667 H 478.016 V 262.9088 H 531.1288888888889 V 254.94186666666667 H 584.2417777777778 V 286.8096 H 637.3546666666666 V 254.94186666666667 H 690.4675555555556 V 270.87573333333336 H 743.5804444444444 V 286.8096 H 796.6933333333334 V 254.94186666666667 H 849.8062222222222 V 278.8426666666667 H 902.9191111111111 V 270.87573333333336 H 956.032 V 278.8426666666667 H 1009.1448888888889 V 294.77653333333336 H 1062.2577777777778 V 598.52 H 0 V 278.8426666666667 Z" fill="#4f8f7b"></path></g><g><path d="M 0 318.6773333333333V 318.6773333333333 H 53.11288888888889 V 334.6112 H 106.22577777777778 V 318.6773333333333 H 159.33866666666665 V 342.5781333333333 H 212.45155555555556 V 326.6442666666666 H 265.56444444444446 V 310.7104 H 318.6773333333333 V 342.5781333333333 H 371.7902222222222 V 302.7434666666666 H 424.9031111111111 V 318.6773333333333 H 478.016 V 334.6112 H 531.1288888888889 V 326.6442666666666 H 584.2417777777778 V 342.5781333333333 H 637.3546666666666 V 334.6112 H 690.4675555555556 V 318.6773333333333 H 743.5804444444444 V 326.6442666666666 H 796.6933333333334 V 342.5781333333333 H 849.8062222222222 V 326.6442666666666 H 902.9191111111111 V 334.6112 H 956.032 V 318.6773333333333 H 1009.1448888888889 V 342.5781333333333 H 1062.2577777777778 V 598.52 H 0 V 318.6773333333333 Z" fill="#478178"></path></g><g><path d="M 0 358.51199999999994V 382.41279999999995 H 53.11288888888889 V 366.47893333333326 H 106.22577777777778 V 342.57813333333326 H 159.33866666666665 V 374.44586666666663 H 212.45155555555556 V 358.51199999999994 H 265.56444444444446 V 366.47893333333326 H 318.6773333333333 V 382.41279999999995 H 371.7902222222222 V 350.5450666666666 H 424.9031111111111 V 382.41279999999995 H 478.016 V 374.44586666666663 H 531.1288888888889 V 342.57813333333326 H 584.2417777777778 V 382.41279999999995 H 637.3546666666666 V 350.5450666666666 H 690.4675555555556 V 366.47893333333326 H 743.5804444444444 V 334.61119999999994 H 796.6933333333334 V 350.5450666666666 H 849.8062222222222 V 374.44586666666663 H 902.9191111111111 V 334.61119999999994 H 956.032 V 334.61119999999994 H 1009.1448888888889 V 342.57813333333326 H 1062.2577777777778 V 598.52 H 0 V 358.51199999999994 Z" fill="#3f7375"></path></g><g><path d="M 0 398.34666666666664V 406.31359999999995 H 53.11288888888889 V 390.3797333333333 H 106.22577777777778 V 398.34666666666664 H 159.33866666666665 V 422.24746666666664 H 212.45155555555556 V 422.24746666666664 H 265.56444444444446 V 414.2805333333333 H 318.6773333333333 V 406.31359999999995 H 371.7902222222222 V 382.41279999999995 H 424.9031111111111 V 422.24746666666664 H 478.016 V 398.34666666666664 H 531.1288888888889 V 374.44586666666663 H 584.2417777777778 V 406.31359999999995 H 637.3546666666666 V 406.31359999999995 H 690.4675555555556 V 414.2805333333333 H 743.5804444444444 V 406.31359999999995 H 796.6933333333334 V 406.31359999999995 H 849.8062222222222 V 374.44586666666663 H 902.9191111111111 V 406.31359999999995 H 956.032 V 398.34666666666664 H 1009.1448888888889 V 406.31359999999995 H 1062.2577777777778 V 598.52 H 0 V 398.34666666666664 Z" fill="#376572"></path></g><g><path d="M 0 438.1813333333333V 454.1152 H 53.11288888888889 V 422.24746666666664 H 106.22577777777778 V 446.14826666666664 H 159.33866666666665 V 446.14826666666664 H 212.45155555555556 V 446.14826666666664 H 265.56444444444446 V 462.08213333333333 H 318.6773333333333 V 438.1813333333333 H 371.7902222222222 V 454.1152 H 424.9031111111111 V 430.2144 H 478.016 V 462.08213333333333 H 531.1288888888889 V 414.2805333333333 H 584.2417777777778 V 454.1152 H 637.3546666666666 V 446.14826666666664 H 690.4675555555556 V 454.1152 H 743.5804444444444 V 430.2144 H 796.6933333333334 V 454.1152 H 849.8062222222222 V 462.08213333333333 H 902.9191111111111 V 438.1813333333333 H 956.032 V 438.1813333333333 H 1009.1448888888889 V 454.1152 H 1062.2577777777778 V 598.52 H 0 V 438.1813333333333 Z" fill="#2f576f"></path></g><g><path d="M 0 478.01599999999996V 462.0821333333333 H 53.11288888888889 V 493.94986666666665 H 106.22577777777778 V 501.91679999999997 H 159.33866666666665 V 478.01599999999996 H 212.45155555555556 V 493.94986666666665 H 265.56444444444446 V 501.91679999999997 H 318.6773333333333 V 478.01599999999996 H 371.7902222222222 V 493.94986666666665 H 424.9031111111111 V 478.01599999999996 H 478.016 V 470.04906666666665 H 531.1288888888889 V 462.0821333333333 H 584.2417777777778 V 454.11519999999996 H 637.3546666666666 V 493.94986666666665 H 690.4675555555556 V 478.01599999999996 H 743.5804444444444 V 470.04906666666665 H 796.6933333333334 V 478.01599999999996 H 849.8062222222222 V 478.01599999999996 H 902.9191111111111 V 485.9829333333333 H 956.032 V 501.91679999999997 H 1009.1448888888889 V 462.0821333333333 H 1062.2577777777778 V 598.52 H 0 V 478.01599999999996 Z" fill="#27496c"></path></g><g><path d="M 0 517.8506666666666V 517.8506666666666 H 53.11288888888889 V 517.8506666666666 H 106.22577777777778 V 541.7514666666666 H 159.33866666666665 V 517.8506666666666 H 212.45155555555556 V 525.8176 H 265.56444444444446 V 525.8176 H 318.6773333333333 V 501.9167999999999 H 371.7902222222222 V 517.8506666666666 H 424.9031111111111 V 541.7514666666666 H 478.016 V 509.8837333333333 H 531.1288888888889 V 517.8506666666666 H 584.2417777777778 V 509.8837333333333 H 637.3546666666666 V 533.7845333333332 H 690.4675555555556 V 533.7845333333332 H 743.5804444444444 V 541.7514666666666 H 796.6933333333334 V 517.8506666666666 H 849.8062222222222 V 525.8176 H 902.9191111111111 V 517.8506666666666 H 956.032 V 509.8837333333333 H 1009.1448888888889 V 525.8176 H 1062.2577777777778 V 598.52 H 0 V 517.8506666666666 Z" fill="#1f3b69"></path></g><g><path d="M 0 557.6853333333333V 549.7184 H 53.11288888888889 V 581.5861333333334 H 106.22577777777778 V 541.7514666666667 H 159.33866666666665 V 573.6192 H 212.45155555555556 V 573.6192 H 265.56444444444446 V 533.7845333333333 H 318.6773333333333 V 565.6522666666667 H 371.7902222222222 V 549.7184 H 424.9031111111111 V 557.6853333333333 H 478.016 V 565.6522666666667 H 531.1288888888889 V 541.7514666666667 H 584.2417777777778 V 565.6522666666667 H 637.3546666666666 V 573.6192 H 690.4675555555556 V 533.7845333333333 H 743.5804444444444 V 565.6522666666667 H 796.6933333333334 V 573.6192 H 849.8062222222222 V 557.6853333333333 H 902.9191111111111 V 565.6522666666667 H 956.032 V 541.7514666666667 H 1009.1448888888889 V 557.6853333333333 H 1062.2577777777778 V 598.52 H 0 V 557.6853333333333 Z" fill="#172d66"></path></g></svg>
